<svg xmlns="http://www.w3.org/2000/svg" class="svg-icon" viewBox="16 13 30 30">
    <a xlink:href="http://www.linkedin.com/pub/taylor-peterson/80/b19/aa8/" target="_blank">
        <path class="icon" fill="#fff"
            d="M21.9 43.8L21.9 25.5 16.2 25.5 16.2 43.8 21.9
               43.8ZM21.9 19C21.8 17.4 20.8 16.2 19 16.2 17.2 16.2 16.1
               17.4 16.1 19 16.1 20.6 17.2 21.9 18.9 21.9L19 21.9C20.8
               21.9 21.9 20.6 21.9 19ZM31.1 43.8L31.1 33.4C31.1 32.8
               31.2 32.3 31.3 31.9 31.8 30.8 32.8 29.6 34.5 29.6 36.7
               29.6 38.2 30.9 38.2 33.4L38.2 43.8 43.8 43.8 43.8
               33.1C43.8 27.4 40.8 24.7 36.7 24.7 33.4 24.7 31.9 26.6
               31.1 27.9L31.1 25.4 25.4 25.4C25.5 27.2 25.4 43.8 25.4
               43.8L31.1 43.8Z"
        />
    </a>
</svg>
